<svg width="47" height="47" viewBox="0 0 47 47" fill="none" xmlns="http://www.w3.org/2000/svg">
<g opacity="0.7">
<path d="M33.2359 20.3021C31.1011 20.0965 28.9583 20.0965 26.8234 20.0745C26.8234 20.0525 26.847 20.0525 26.847 20.0304C27.1845 18.9512 26.6036 17.4681 26.2976 16.433C25.8894 15.0821 25.2615 13.6724 24.1627 12.7033C23.7781 12.3656 23.2522 12.5491 23.0795 12.975C22.169 15.1995 21.3292 17.4902 20.6307 19.7588C20.5836 19.7368 20.5365 19.7147 20.4658 19.7147C18.1112 19.4871 15.6387 19.377 13.2841 19.8249C12.7582 19.913 12.6326 20.5003 12.8288 20.8821C13.6687 22.6368 15.9292 24.5897 17.9699 24.9935C17.805 25.3313 17.6324 25.691 17.4675 26.0288C17.4204 26.0948 17.3498 26.1609 17.3027 26.2343C17.185 26.3665 17.1614 26.528 17.185 26.6601C16.2745 28.6351 15.4818 30.6614 14.9009 32.7245C14.7361 33.2605 15.4268 33.8478 15.9841 33.488C18.0248 32.2105 20.0184 30.8817 21.8943 29.4207C23.8409 30.8597 25.7874 32.2547 28.0164 33.2825C28.5187 33.5101 29.076 33.2384 29.1232 32.6952C29.288 30.4926 29.029 28.1139 28.1656 26.0434C29.1232 25.7277 30.065 24.832 30.8107 24.2227C31.8703 23.371 32.8749 22.4239 33.7853 21.4401C34.1699 20.9775 33.856 20.3461 33.2359 20.3021Z" fill="#6809EE"/>
<path d="M44.7822 8.2172C43.3144 8.01163 41.7289 7.85745 40.2455 7.9896C40.1278 7.4977 39.8138 6.97644 39.5704 6.55061C39.2564 5.99264 38.8483 5.49339 38.3225 5.11162C38.0085 4.862 37.5769 4.88402 37.3414 5.22175C36.8625 5.94124 36.5251 6.77087 36.3289 7.60049C35.0809 7.49036 33.8094 7.62251 32.5379 7.64454C32.012 7.64454 31.5803 8.23188 31.9099 8.67973C32.7262 9.781 33.9742 10.6767 35.2928 11.1759C34.9789 12.2552 34.7669 13.3785 34.4766 14.4797C34.3589 14.9717 34.9083 15.4268 35.3871 15.1332C36.4702 14.5018 37.4984 13.7603 38.4874 13.0187C39.3037 13.8263 40.0729 14.656 40.9127 15.4709C41.3208 15.8747 41.9252 15.537 41.9723 15.0671C42.1136 13.8337 42.2156 12.057 41.5642 10.8456C42.8357 10.4858 44.0601 10.0159 45.049 9.18632C45.3865 8.91467 45.2688 8.28328 44.7822 8.2172Z" fill="#6809EE"/>
<path d="M42.1452 31.623C41.3525 31.9607 40.5834 32.3204 39.8142 32.6582C39.3118 32.0488 38.7546 31.4468 38.1815 30.8815C37.7263 30.4337 36.8864 30.7714 36.9101 31.3734C36.9101 32.2251 36.9572 33.1061 37.0042 33.9577C36.0702 34.4056 35.1518 34.8313 34.2414 35.3085C33.5664 35.6463 33.8568 36.7255 34.626 36.6814C35.4893 36.6374 36.3292 36.6594 37.169 36.7475C37.2161 37.489 37.2632 38.2305 37.3103 38.9941C37.3338 39.5301 38.0324 39.6255 38.3228 39.2878C38.5896 39.3318 38.8486 39.2217 38.9978 38.928C39.2882 38.3407 39.6257 37.7827 39.9789 37.2394C40.6775 37.3937 41.3682 37.5772 42.0903 37.7533C42.6868 37.9076 43.3853 37.2174 42.9536 36.6962C42.4748 36.1089 42.0431 35.5289 41.5879 34.9415C42.1374 34.178 42.6946 33.4364 43.197 32.6509C43.6365 31.9607 42.7888 31.3586 42.1452 31.623Z" fill="#6809EE"/>
<path d="M13.0578 10.3757C13.3482 9.97192 13.6308 9.56812 13.8741 9.1423C14.2116 8.58432 13.5131 7.76938 12.8616 8.19521C12.5241 8.4228 12.1631 8.62103 11.8256 8.8266C11.441 8.29065 11.1035 7.74736 10.813 7.16736C10.5226 6.58001 9.54152 6.87368 9.54152 7.48305C9.56507 8.3347 9.58862 9.17167 9.63571 10.0233C9.0078 10.361 8.38773 10.6767 7.75982 11.0145C7.10836 11.3522 7.39877 12.3433 8.14442 12.314C8.67029 12.314 9.22757 12.314 9.75344 12.314C9.65926 12.5195 9.61216 12.7178 9.61216 12.9233C9.63571 13.3491 10.1145 13.6428 10.5226 13.4152C10.9543 13.1656 11.2918 12.7398 11.5822 12.314C12.1317 12.314 12.6889 12.314 13.2384 12.314C13.8898 12.314 14.1488 11.5945 13.7407 11.1686C13.5131 10.8896 13.3011 10.618 13.0578 10.3757Z" fill="#6809EE"/>
<path d="M16.4714 39.8897C16.0397 39.7796 15.6316 39.6181 15.2234 39.4639C15.3647 39.016 15.4903 38.5682 15.5845 38.091C15.7022 37.4376 14.9095 36.9236 14.3836 37.4376C13.999 37.7973 13.5909 38.1571 13.2063 38.4948C12.7981 38.2671 12.39 38.0469 12.0054 37.7973C11.3775 37.4155 10.781 38.135 11.0714 38.6709C11.2911 39.0527 11.456 39.4345 11.6443 39.8163C11.0164 40.3302 10.3964 40.8295 9.76845 41.3434C9.09344 41.8794 9.95682 42.7383 10.6554 42.4226C11.2597 42.151 11.8563 41.9528 12.4842 41.7692C12.5784 41.9969 12.649 42.2171 12.751 42.4447C12.7275 42.5328 12.7039 42.6209 12.7039 42.7163C12.7039 43.032 12.6568 43.076 12.751 42.7823C12.5077 43.4578 13.638 43.7294 13.8813 43.076C13.8577 43.1641 13.8106 43.2302 13.7871 43.2816C13.8106 43.2595 13.8106 43.2595 13.8342 43.2375C13.9755 43.1054 14.0775 42.9438 14.1481 42.7677C14.313 42.3418 14.4621 41.894 14.6269 41.4682C14.6505 41.4241 14.6505 41.3801 14.674 41.3581C15.2234 41.292 15.7807 41.248 16.3537 41.2259C17.0679 41.1745 17.2406 40.0952 16.4714 39.8897Z" fill="#6809EE"/>
<path d="M13.7081 43.2596C13.6139 43.3991 13.559 43.3991 13.7081 43.2596Z" fill="#6809EE"/>
<path d="M11.3063 43.3992C10.9688 43.8911 10.7098 44.4123 10.5607 44.9923C10.4665 45.352 11.0395 45.6237 11.2357 45.264C11.5025 44.7501 11.738 44.2068 11.9578 43.6708C12.0991 43.289 11.5182 43.1055 11.3063 43.3992Z" fill="#6809EE"/>
<path d="M9.3834 38.098C9.06944 38.2523 8.73194 38.3477 8.37089 38.4358C8.05693 38.5018 7.74298 38.4358 7.43687 38.4358C7.05227 38.4358 6.93454 38.9056 7.2485 39.0892C8.08833 39.5811 9.07729 39.0672 9.74445 38.5532C10.0349 38.3403 9.67381 37.9586 9.3834 38.098Z" fill="#6809EE"/>
<path d="M11.8326 35.3747C11.4951 35.9327 11.6128 36.5861 11.4009 37.1955C11.3067 37.4231 11.6913 37.5773 11.8326 37.3497C12.1466 36.8137 12.3114 36.1162 12.382 35.5069C12.4134 35.2426 11.9739 35.1764 11.8326 35.3747Z" fill="#6809EE"/>
<path d="M18.4173 37.6212C18.1269 37.7755 17.8914 38.025 17.601 38.1866C17.287 38.3628 16.926 38.4142 16.5649 38.3628C16.3216 38.3186 16.1332 38.6564 16.4001 38.7666C17.2635 39.1262 18.3937 38.8767 18.9196 38.0911C19.108 37.7828 18.7234 37.4671 18.4173 37.6212Z" fill="#6809EE"/>
<path d="M17.3585 43.9131C17.2878 43.5533 16.9268 43.3037 16.8797 42.9219C16.8326 42.4961 16.1576 42.4741 16.134 42.9219C16.134 43.3698 16.3538 43.9571 16.6835 44.2728C16.9974 44.5445 17.4056 44.2508 17.3585 43.9131Z" fill="#6809EE"/>
<path d="M34.9162 31.8726H34.8926C34.822 31.7845 34.7042 31.7404 34.5787 31.667C34.3903 31.5569 34.2412 31.4174 34.0292 31.3733C33.8095 31.3292 33.5975 31.5055 33.6681 31.711C33.7858 32.1148 34.4609 32.5628 34.8454 32.2764H34.8691C35.081 32.2103 35.1516 31.9166 34.9162 31.8726Z" fill="#6809EE"/>
<path d="M34.5552 38.0763C34.1941 38.1644 33.9273 38.2526 33.6446 38.4801C33.3071 38.7518 33.1188 39.1115 33.1658 39.5153C33.2129 39.765 33.5504 39.787 33.7153 39.6476C33.935 39.4714 34.0528 39.2217 34.2411 39.0381C34.3824 38.8839 34.6728 38.6784 34.7906 38.6123C35.0574 38.4141 34.9162 37.959 34.5552 38.0763Z" fill="#6809EE"/>
<path d="M41.3522 40.2055C41.1088 39.9559 40.8498 39.8017 40.8263 39.442C40.7792 39.0162 40.1042 38.9941 40.0806 39.442C40.0571 39.7578 40.1278 40.0293 40.269 40.2937C40.4103 40.558 40.7949 40.9471 41.1559 40.8517C41.4699 40.7709 41.5642 40.4111 41.3522 40.2055Z" fill="#6809EE"/>
<path d="M44.398 34.4126C44.084 34.4347 43.8957 34.6182 43.6523 34.7943C43.3855 34.9705 43.1029 35.11 42.8361 35.2642C42.4515 35.4698 42.789 35.9837 43.1736 35.8295C43.6995 35.6019 44.5943 35.2935 44.6649 34.6841C44.6649 34.5227 44.5236 34.3905 44.398 34.4126Z" fill="#6809EE"/>
<path d="M40.8502 28.0329C40.7796 27.6511 40.1282 27.6511 40.034 28.0329C39.8456 28.8845 40.034 29.7875 39.8456 30.6612C39.7514 31.1091 40.45 31.2926 40.5677 30.8374C40.8267 29.9857 41.0386 28.9065 40.8502 28.0329Z" fill="#6809EE"/>
<path d="M38.5897 17.1157C38.5427 16.5283 38.5897 15.9703 38.6604 15.383C38.7075 15.0012 38.1815 14.8471 38.0325 15.2288C37.8441 15.7648 37.7891 16.3521 37.7656 16.9395C37.7421 17.4314 37.7185 18.1068 38.0325 18.5326C38.1973 18.7382 38.629 18.7602 38.6839 18.4445C38.7782 18.0114 38.6133 17.5635 38.5897 17.1157Z" fill="#6809EE"/>
<path d="M45.0959 12.8208C44.6407 12.7768 44.3738 13.1806 43.9421 13.2246C43.4869 13.2687 43.4633 13.9001 43.9421 13.9221C44.4209 13.9221 45.143 13.7165 45.4099 13.2907C45.504 13.0704 45.3391 12.8429 45.0959 12.8208Z" fill="#6809EE"/>
<path d="M43.2986 4.80315C43.2281 4.59758 42.8434 4.46543 42.7256 4.73707C42.655 4.89125 42.655 5.05277 42.6079 5.22897C42.5608 5.45657 42.3646 5.6548 42.1762 5.79429C41.9879 5.92644 42.082 6.28619 42.3411 6.19809C42.8905 5.97049 43.5105 5.36113 43.2986 4.80315Z" fill="#6809EE"/>
<path d="M35.0345 5.22913C34.7912 5.09698 34.6028 4.93546 34.4615 4.73723C34.2731 4.48761 34.1946 4.17925 33.9592 3.99571C33.7709 3.86355 33.4333 3.88558 33.3627 4.14988C33.2214 4.86938 34.0611 5.56685 34.6813 5.8385C35.0816 5.99267 35.4427 5.44938 35.0345 5.22913Z" fill="#6809EE"/>
<path d="M32.7739 11.2275C32.2951 11.2275 31.3297 11.5212 31.4789 12.1012C31.5494 12.3949 31.8399 12.4169 32.1068 12.3729C32.2716 12.3508 32.3972 12.1967 32.5385 12.1012C32.6562 12.0351 32.7582 11.9911 32.876 11.9691C33.3311 11.903 33.2134 11.2275 32.7739 11.2275Z" fill="#6809EE"/>
<path d="M30.7087 15.2068C30.1592 15.4564 29.7511 15.9924 29.3664 16.4182C29.0054 16.822 28.715 17.2478 28.4795 17.7177C28.2911 18.1435 28.8876 18.5033 29.1545 18.0995C29.4449 17.6737 29.7511 17.2699 30.1121 16.9101C30.4967 16.5283 30.999 16.1906 31.2423 15.7208C31.4307 15.361 31.0696 15.0233 30.7087 15.2068Z" fill="#6809EE"/>
<path d="M34.8695 27.4675C34.4378 26.9756 33.7862 26.6819 33.2604 26.2782C33.0721 26.146 32.8993 25.9845 32.6874 25.8744C32.5461 25.8083 32.5225 25.8303 32.4206 25.7642C32.2557 25.6541 32.0125 25.8744 32.1302 26.0359C32.1773 26.1019 32.2008 26.19 32.2479 26.2855C32.3892 26.5131 32.609 26.6893 32.7973 26.8728C33.2997 27.3207 33.8569 27.864 34.5241 27.9961C34.893 28.0769 35.0813 27.7172 34.8695 27.4675Z" fill="#6809EE"/>
<path d="M23.3156 33.7814C23.2921 33.2895 23.3156 32.7682 23.245 32.2763C23.2214 31.9827 22.7897 31.9827 22.7427 32.2763C22.6956 32.7682 22.7191 33.2895 22.672 33.7814C22.6485 34.2513 22.6014 34.6991 22.7191 35.1764C22.7897 35.426 23.1743 35.426 23.245 35.1764C23.4098 34.6845 23.3392 34.2514 23.3156 33.7814Z" fill="#6809EE"/>
<path d="M14.305 25.7863C13.4887 25.9185 12.6018 25.8524 11.8561 25.8084C11.6128 25.7863 11.4009 26.0579 11.4715 26.2782C11.6364 26.7921 12.2878 26.7921 12.7666 26.7921C13.371 26.7921 14.0617 26.7481 14.619 26.5205C15.0977 26.3223 14.7367 25.7203 14.305 25.7863Z" fill="#6809EE"/>
<path d="M19.0146 17.3798C18.8733 16.7924 18.6535 16.2344 18.316 15.7205C18.0492 15.3167 17.6881 14.6853 17.1152 14.8028C16.9974 14.8248 16.8954 14.9129 16.8718 15.0304C16.7541 15.4782 17.2329 15.838 17.4762 16.1757C17.7902 16.6235 18.0021 17.0934 18.1748 17.5927C18.3396 18.0772 19.1323 17.879 19.0146 17.3798Z" fill="#6809EE"/>
<path d="M12.767 13.5179C12.6728 13.2683 12.2647 13.3637 12.3353 13.628C12.4295 13.9657 12.5237 14.3035 12.6257 14.6412C12.6964 15.0229 12.6728 15.4267 12.7906 15.8085C12.8612 16.0141 13.1751 16.0361 13.2458 15.8085C13.4656 15.067 13.0339 14.1933 12.767 13.5179Z" fill="#6809EE"/>
<path d="M8.20693 13.0702C7.89297 13.2024 7.61041 13.4079 7.32 13.5841C7.07668 13.7383 6.77058 13.8338 6.69209 14.1201C6.66854 14.2082 6.69209 14.3697 6.78627 14.4358C7.10023 14.6854 7.41419 14.4798 7.6732 14.2816C7.96361 14.054 8.22262 13.8117 8.56013 13.6282C8.92903 13.4079 8.59152 12.9087 8.20693 13.0702Z" fill="#6809EE"/>
<path d="M7.84525 9.6121C7.1467 9.2964 6.73855 8.66501 6.11849 8.28324C6.00076 8.21716 5.80453 8.19514 5.6868 8.28324C5.61616 8.32729 5.59261 8.37134 5.54552 8.41539C5.45133 8.52552 5.47488 8.70906 5.54552 8.81919C5.97721 9.45058 6.86414 9.96451 7.60978 10.1481C7.93944 10.2362 8.18275 9.76628 7.84525 9.6121Z" fill="#6809EE"/>
<path d="M12.4606 4.48766C12.2958 4.73728 12.1938 5.02361 12.076 5.29525C11.9348 5.61095 11.715 5.92665 11.5266 6.24235C11.2597 6.62412 11.8877 6.93982 12.1545 6.58007C12.5627 6.02209 13.0885 5.36867 13.1356 4.6712C13.1749 4.28209 12.649 4.21601 12.4606 4.48766Z" fill="#6809EE"/>
<path d="M17.6718 10.2584C17.2402 10.2364 16.832 10.3025 16.3768 10.3686C15.8744 10.4126 15.3643 10.4126 14.8619 10.4567C14.4773 10.5007 14.4773 10.9706 14.8619 10.9926C15.7724 11.0807 16.9733 11.1688 17.7896 10.721C18.0564 10.5962 17.9309 10.2805 17.6718 10.2584Z" fill="#6809EE"/>
</g>
</svg>
