<svg width="324" height="265" viewBox="0 0 324 265" fill="none" xmlns="http://www.w3.org/2000/svg">
<g opacity="0.7">
<path d="M298.814 216.148C294.908 215.772 290.987 215.772 287.081 215.732C287.081 215.692 287.124 215.692 287.124 215.651C287.742 213.677 286.679 210.963 286.119 209.069C285.372 206.597 284.223 204.018 282.212 202.244C281.509 201.626 280.546 201.962 280.23 202.741C278.564 206.812 277.028 211.003 275.749 215.154C275.663 215.114 275.577 215.074 275.448 215.074C271.139 214.657 266.615 214.456 262.307 215.275C261.345 215.436 261.115 216.511 261.474 217.21C263.011 220.42 267.147 223.994 270.881 224.733C270.579 225.351 270.263 226.009 269.962 226.627C269.875 226.748 269.746 226.869 269.66 227.003C269.445 227.245 269.402 227.541 269.445 227.782C267.779 231.396 266.328 235.104 265.265 238.879C264.964 239.86 266.228 240.934 267.247 240.276C270.981 237.938 274.629 235.507 278.062 232.834C281.623 235.467 285.185 238.019 289.264 239.9C290.183 240.316 291.203 239.819 291.289 238.825C291.591 234.795 291.117 230.442 289.537 226.654C291.289 226.076 293.012 224.437 294.377 223.322C296.316 221.764 298.154 220.031 299.82 218.231C300.523 217.384 299.949 216.229 298.814 216.148Z" fill="#6809EE"/>
<path d="M319.942 194.036C317.256 193.66 314.355 193.377 311.64 193.619C311.425 192.719 310.851 191.765 310.405 190.986C309.831 189.965 309.084 189.052 308.122 188.353C307.547 187.896 306.757 187.937 306.327 188.555C305.45 189.871 304.833 191.389 304.474 192.907C302.19 192.706 299.864 192.948 297.537 192.988C296.575 192.988 295.785 194.063 296.388 194.882C297.882 196.897 300.165 198.536 302.578 199.45C302.004 201.424 301.616 203.48 301.085 205.495C300.869 206.395 301.875 207.228 302.751 206.69C304.733 205.535 306.614 204.178 308.424 202.822C309.917 204.299 311.325 205.817 312.861 207.308C313.608 208.047 314.714 207.429 314.8 206.57C315.059 204.313 315.245 201.062 314.053 198.845C316.38 198.187 318.62 197.327 320.43 195.809C321.047 195.312 320.832 194.157 319.942 194.036Z" fill="#6809EE"/>
<path d="M315.116 236.863C313.666 237.481 312.258 238.14 310.851 238.758C309.932 237.643 308.912 236.541 307.864 235.507C307.031 234.687 305.494 235.305 305.537 236.407C305.537 237.965 305.623 239.577 305.709 241.135C304 241.955 302.32 242.734 300.654 243.607C299.419 244.225 299.95 246.2 301.358 246.119C302.937 246.039 304.474 246.079 306.011 246.24C306.097 247.597 306.183 248.954 306.269 250.351C306.313 251.332 307.591 251.506 308.122 250.888C308.61 250.969 309.084 250.767 309.357 250.23C309.889 249.155 310.506 248.134 311.152 247.14C312.431 247.422 313.695 247.758 315.016 248.081C316.107 248.363 317.385 247.1 316.596 246.146C315.719 245.072 314.929 244.01 314.097 242.936C315.102 241.539 316.122 240.182 317.041 238.744C317.845 237.481 316.294 236.38 315.116 236.863Z" fill="#6809EE"/>
<path d="M261.893 197.985C262.424 197.247 262.941 196.508 263.386 195.728C264.004 194.707 262.726 193.216 261.534 193.995C260.916 194.412 260.255 194.775 259.638 195.151C258.934 194.17 258.317 193.176 257.785 192.115C257.254 191.04 255.458 191.577 255.458 192.692C255.502 194.251 255.545 195.782 255.631 197.341C254.482 197.958 253.347 198.536 252.198 199.154C251.006 199.772 251.538 201.586 252.902 201.532C253.864 201.532 254.884 201.532 255.846 201.532C255.674 201.908 255.588 202.271 255.588 202.647C255.631 203.426 256.507 203.963 257.254 203.547C258.044 203.09 258.661 202.311 259.193 201.532C260.198 201.532 261.218 201.532 262.223 201.532C263.415 201.532 263.889 200.215 263.142 199.436C262.726 198.926 262.338 198.429 261.893 197.985Z" fill="#6809EE"/>
<path d="M268.139 251.99C267.349 251.788 266.602 251.493 265.856 251.211C266.114 250.391 266.344 249.572 266.516 248.698C266.732 247.503 265.281 246.562 264.319 247.503C263.615 248.161 262.868 248.819 262.165 249.437C261.418 249.021 260.671 248.618 259.967 248.161C258.818 247.463 257.727 248.779 258.258 249.76C258.66 250.458 258.962 251.157 259.307 251.855C258.158 252.796 257.023 253.709 255.874 254.65C254.639 255.63 256.219 257.202 257.497 256.624C258.603 256.127 259.694 255.765 260.843 255.429C261.016 255.845 261.145 256.248 261.332 256.665C261.288 256.826 261.245 256.987 261.245 257.162C261.245 257.739 261.159 257.82 261.332 257.283C260.886 258.518 262.954 259.016 263.4 257.82C263.357 257.981 263.27 258.102 263.227 258.196C263.27 258.156 263.27 258.156 263.313 258.115C263.572 257.874 263.759 257.578 263.888 257.256C264.19 256.477 264.462 255.657 264.764 254.878C264.807 254.797 264.807 254.717 264.85 254.677C265.856 254.556 266.875 254.475 267.924 254.435C269.231 254.341 269.547 252.366 268.139 251.99Z" fill="#6809EE"/>
<path d="M263.083 258.156C262.81 258.411 262.911 258.411 263.083 258.156V258.156Z" fill="#6809EE"/>
<path d="M258.688 258.411C258.07 259.311 257.597 260.265 257.324 261.326C257.151 261.985 258.2 262.482 258.559 261.823C259.047 260.883 259.478 259.889 259.88 258.908C260.139 258.21 259.076 257.874 258.688 258.411Z" fill="#6809EE"/>
<path d="M255.17 248.711C254.595 248.994 253.977 249.168 253.317 249.329C252.742 249.45 252.168 249.329 251.608 249.329C250.904 249.329 250.689 250.189 251.263 250.525C252.8 251.425 254.609 250.485 255.83 249.544C256.362 249.155 255.701 248.456 255.17 248.711Z" fill="#6809EE"/>
<path d="M259.651 243.728C259.033 244.749 259.249 245.945 258.861 247.06C258.688 247.476 259.392 247.758 259.651 247.342C260.225 246.361 260.527 245.085 260.656 243.97C260.714 243.486 259.909 243.365 259.651 243.728Z" fill="#6809EE"/>
<path d="M271.7 247.839C271.168 248.121 270.737 248.578 270.206 248.873C269.631 249.196 268.971 249.29 268.31 249.196C267.865 249.115 267.52 249.733 268.009 249.935C269.588 250.593 271.656 250.136 272.619 248.699C272.963 248.134 272.26 247.557 271.7 247.839Z" fill="#6809EE"/>
<path d="M269.762 259.352C269.633 258.693 268.972 258.237 268.886 257.538C268.8 256.759 267.565 256.718 267.521 257.538C267.521 258.357 267.924 259.432 268.527 260.01C269.101 260.507 269.848 259.97 269.762 259.352Z" fill="#6809EE"/>
<path d="M301.889 237.32H301.846C301.717 237.159 301.501 237.078 301.271 236.944C300.927 236.742 300.654 236.487 300.266 236.407C299.864 236.326 299.476 236.648 299.605 237.024C299.821 237.763 301.056 238.583 301.76 238.059H301.803C302.191 237.938 302.32 237.401 301.889 237.32Z" fill="#6809EE"/>
<path d="M301.228 248.672C300.567 248.833 300.079 248.994 299.562 249.41C298.945 249.908 298.6 250.566 298.686 251.305C298.772 251.761 299.39 251.802 299.691 251.547C300.094 251.224 300.309 250.767 300.654 250.431C300.912 250.149 301.444 249.773 301.659 249.652C302.147 249.29 301.889 248.457 301.228 248.672Z" fill="#6809EE"/>
<path d="M313.666 252.568C313.22 252.111 312.746 251.829 312.703 251.17C312.617 250.391 311.382 250.351 311.339 251.17C311.296 251.748 311.425 252.245 311.684 252.729C311.942 253.213 312.646 253.924 313.307 253.75C313.881 253.602 314.054 252.944 313.666 252.568Z" fill="#6809EE"/>
<path d="M319.239 241.968C318.664 242.008 318.32 242.344 317.874 242.666C317.386 242.989 316.869 243.244 316.381 243.526C315.677 243.902 316.294 244.843 316.998 244.56C317.961 244.144 319.598 243.58 319.727 242.465C319.727 242.169 319.469 241.927 319.239 241.968Z" fill="#6809EE"/>
<path d="M312.747 230.294C312.618 229.596 311.426 229.596 311.253 230.294C310.909 231.853 311.253 233.505 310.909 235.104C310.736 235.923 312.014 236.259 312.23 235.426C312.704 233.867 313.091 231.893 312.747 230.294Z" fill="#6809EE"/>
<path d="M308.611 210.318C308.525 209.243 308.611 208.222 308.74 207.148C308.826 206.449 307.864 206.167 307.591 206.866C307.246 207.846 307.146 208.921 307.103 209.996C307.06 210.896 307.017 212.132 307.591 212.911C307.893 213.287 308.683 213.327 308.783 212.75C308.956 211.957 308.654 211.137 308.611 210.318Z" fill="#6809EE"/>
<path d="M320.516 202.459C319.683 202.379 319.195 203.118 318.405 203.198C317.572 203.279 317.529 204.434 318.405 204.474C319.281 204.474 320.602 204.098 321.09 203.319C321.263 202.916 320.961 202.5 320.516 202.459Z" fill="#6809EE"/>
<path d="M317.227 187.789C317.098 187.413 316.394 187.171 316.179 187.668C316.05 187.95 316.05 188.246 315.963 188.568C315.877 188.984 315.518 189.347 315.173 189.602C314.829 189.844 315.001 190.502 315.475 190.341C316.48 189.925 317.615 188.81 317.227 187.789Z" fill="#6809EE"/>
<path d="M302.105 188.568C301.66 188.326 301.316 188.031 301.057 187.668C300.712 187.211 300.569 186.647 300.138 186.311C299.793 186.069 299.176 186.11 299.046 186.593C298.788 187.91 300.324 189.186 301.459 189.683C302.192 189.965 302.852 188.971 302.105 188.568Z" fill="#6809EE"/>
<path d="M297.969 199.544C297.093 199.544 295.327 200.081 295.599 201.143C295.729 201.68 296.26 201.72 296.748 201.64C297.05 201.599 297.28 201.317 297.538 201.143C297.754 201.022 297.94 200.941 298.156 200.901C298.989 200.78 298.773 199.544 297.969 199.544Z" fill="#6809EE"/>
<path d="M294.19 206.825C293.185 207.282 292.438 208.263 291.734 209.042C291.073 209.781 290.542 210.56 290.111 211.42C289.766 212.199 290.858 212.857 291.346 212.118C291.878 211.339 292.438 210.6 293.098 209.942C293.802 209.243 294.721 208.625 295.166 207.766C295.511 207.107 294.851 206.489 294.19 206.825Z" fill="#6809EE"/>
<path d="M301.803 229.26C301.014 228.36 299.821 227.822 298.859 227.083C298.515 226.842 298.198 226.546 297.811 226.345C297.552 226.224 297.509 226.264 297.323 226.143C297.021 225.942 296.576 226.345 296.791 226.64C296.877 226.761 296.92 226.922 297.007 227.097C297.265 227.513 297.667 227.836 298.012 228.172C298.931 228.991 299.951 229.985 301.172 230.227C301.847 230.375 302.191 229.717 301.803 229.26Z" fill="#6809EE"/>
<path d="M280.662 240.813C280.619 239.913 280.662 238.959 280.533 238.059C280.49 237.522 279.7 237.522 279.614 238.059C279.528 238.959 279.571 239.913 279.485 240.813C279.442 241.673 279.355 242.492 279.571 243.365C279.7 243.822 280.404 243.822 280.533 243.365C280.835 242.465 280.705 241.673 280.662 240.813Z" fill="#6809EE"/>
<path d="M264.175 226.183C262.681 226.425 261.058 226.304 259.694 226.224C259.249 226.183 258.861 226.68 258.99 227.083C259.292 228.024 260.484 228.024 261.36 228.024C262.466 228.024 263.729 227.943 264.749 227.527C265.625 227.164 264.965 226.063 264.175 226.183Z" fill="#6809EE"/>
<path d="M272.792 210.801C272.534 209.727 272.132 208.706 271.514 207.765C271.026 207.026 270.365 205.871 269.317 206.086C269.101 206.126 268.915 206.287 268.871 206.502C268.656 207.322 269.532 207.98 269.977 208.598C270.552 209.418 270.94 210.277 271.255 211.191C271.557 212.077 273.008 211.715 272.792 210.801Z" fill="#6809EE"/>
<path d="M261.361 203.735C261.188 203.278 260.441 203.453 260.571 203.936C260.743 204.554 260.915 205.172 261.102 205.79C261.231 206.489 261.188 207.228 261.404 207.926C261.533 208.302 262.107 208.343 262.237 207.926C262.639 206.569 261.849 204.971 261.361 203.735Z" fill="#6809EE"/>
<path d="M253.017 202.916C252.442 203.158 251.925 203.534 251.394 203.856C250.949 204.138 250.389 204.313 250.245 204.837C250.202 204.998 250.245 205.294 250.417 205.414C250.992 205.871 251.566 205.495 252.04 205.132C252.572 204.716 253.045 204.273 253.663 203.937C254.338 203.534 253.721 202.62 253.017 202.916Z" fill="#6809EE"/>
<path d="M252.355 196.588C251.077 196.01 250.33 194.855 249.195 194.157C248.98 194.036 248.621 193.995 248.405 194.157C248.276 194.237 248.233 194.318 248.147 194.398C247.975 194.6 248.018 194.936 248.147 195.137C248.937 196.293 250.56 197.233 251.924 197.569C252.527 197.73 252.972 196.87 252.355 196.588Z" fill="#6809EE"/>
<path d="M260.8 187.211C260.498 187.668 260.312 188.192 260.096 188.689C259.838 189.267 259.436 189.844 259.091 190.422C258.603 191.121 259.752 191.698 260.24 191.04C260.987 190.019 261.949 188.824 262.035 187.547C262.107 186.835 261.145 186.714 260.8 187.211Z" fill="#6809EE"/>
<path d="M270.335 197.771C269.545 197.73 268.799 197.851 267.966 197.972C267.046 198.053 266.113 198.053 265.194 198.133C264.49 198.214 264.49 199.074 265.194 199.114C266.86 199.275 269.057 199.437 270.551 198.617C271.039 198.389 270.809 197.811 270.335 197.771Z" fill="#6809EE"/>
</g>
<g opacity="0.7" clip-path="url(#clip0_212_53)">
<path d="M196.705 71.3867C198.08 67.7109 199.095 63.9235 200.145 60.1608C200.184 60.1712 200.172 60.2128 200.211 60.2233C201.959 61.3309 204.855 61.0065 206.83 60.9559C209.411 60.8743 212.2 60.4321 214.433 58.9489C215.212 58.4291 215.136 57.4127 214.466 56.9058C210.965 54.2431 207.314 51.674 203.635 49.3649C203.697 49.2921 203.758 49.2193 203.791 49.0945C205.309 45.0405 206.674 40.7229 206.998 36.349C207.091 35.3778 206.113 34.8777 205.345 35.0437C201.846 35.6971 197.324 38.7675 195.643 42.1831C195.124 41.7318 194.571 41.2563 194.052 40.805C193.957 40.6905 193.874 40.5343 193.766 40.4163C193.589 40.1456 193.314 40.0275 193.069 40.0066C190.01 37.462 186.804 35.1013 183.433 33.0977C182.563 32.5525 181.198 33.4951 181.57 34.6505C182.862 38.8623 184.266 43.0153 185.96 47.0227C182.495 49.7815 179.108 52.5613 176.235 56.0142C175.595 56.7942 175.811 57.9078 176.749 58.2485C180.564 59.5829 184.891 60.2516 188.959 59.7062C189.064 61.5481 190.201 63.637 190.925 65.2435C191.928 67.5196 193.126 69.7438 194.434 71.8188C195.069 72.7176 196.334 72.4617 196.705 71.3867Z" fill="#6809EE"/>
<path d="M212.597 97.516C213.655 95.0192 214.678 92.29 215.147 89.6055C216.073 89.6304 217.143 89.3224 218.01 89.0939C219.145 88.8032 220.221 88.3183 221.145 87.5698C221.735 87.1331 221.9 86.3597 221.415 85.7835C220.37 84.5964 219.063 83.6072 217.69 82.8675C218.476 80.7139 218.844 78.404 219.408 76.1462C219.657 75.2167 218.823 74.1756 217.875 74.5462C215.542 75.4672 213.368 77.2489 211.861 79.343C210.102 78.277 208.217 77.3705 206.409 76.3358C205.595 75.8948 204.53 76.6502 204.822 77.6355C205.425 79.849 206.249 82.0174 207.091 84.1165C205.277 85.1768 203.447 86.1434 201.609 87.2418C200.702 87.7718 201.012 88.9999 201.821 89.3058C203.934 90.1397 207.026 91.1614 209.475 90.5837C209.509 93.0014 209.759 95.3881 210.757 97.5287C211.078 98.2539 212.249 98.3448 212.597 97.516Z" fill="#6809EE"/>
<path d="M172.477 81.7712C172.255 80.2101 171.984 78.6804 171.751 77.1609C173.066 76.5617 174.394 75.8618 175.664 75.1167C176.672 74.5242 176.472 72.8799 175.397 72.6366C173.892 72.2332 172.313 71.8992 170.785 71.579C170.436 69.7162 170.118 67.8914 169.706 66.0563C169.429 64.7032 167.384 64.7055 167.097 66.0857C166.766 67.6326 166.33 69.1065 165.776 70.5491C164.443 70.2812 163.111 70.0133 161.739 69.7349C160.78 69.5227 160.281 70.7121 160.74 71.3853C160.536 71.836 160.608 72.346 161.056 72.7488C161.957 73.5402 162.783 74.401 163.576 75.2825C162.973 76.4441 162.321 77.578 161.668 78.7708C161.113 79.7521 162.002 81.3136 163.127 80.7974C164.392 80.2292 165.622 79.7409 166.875 79.2146C167.965 80.5473 169.011 81.8834 170.162 83.1433C171.174 84.247 172.639 83.0339 172.477 81.7712Z" fill="#6809EE"/>
<path d="M223.805 40.4229C224.381 41.1274 224.961 41.818 225.599 42.4497C226.425 43.3105 228.196 42.4618 227.752 41.1087C227.51 40.4044 227.33 39.6724 227.127 38.9785C228.256 38.5526 229.376 38.2134 230.539 37.9748C231.714 37.7397 231.66 35.8665 230.583 35.5779C229.067 35.2162 227.576 34.8615 226.049 34.5414C225.749 33.2716 225.485 32.0262 225.185 30.7565C224.897 29.4451 223.008 29.489 222.706 30.8208C222.457 31.7503 222.193 32.7352 221.944 33.6647C221.626 33.4008 221.298 33.2237 220.934 33.1264C220.17 32.9663 219.425 33.6735 219.634 34.5026C219.87 35.3838 220.463 36.182 221.078 36.8969C220.818 37.868 220.554 38.853 220.294 39.824C219.985 40.9754 221.134 41.774 222.08 41.2543C222.681 40.9841 223.262 40.7382 223.805 40.4229Z" fill="#6809EE"/>
<path d="M170.025 32.4796C170.424 31.7687 170.903 31.1239 171.368 30.4755C172.093 30.9374 172.825 31.3714 173.624 31.7638C174.723 32.2814 176.007 31.1237 175.348 29.9508C174.894 29.1007 174.451 28.2089 174.037 27.3693C174.632 26.7557 175.215 26.1387 175.838 25.5771C176.81 24.6481 175.821 23.253 174.736 23.5125C173.958 23.7202 173.205 23.8307 172.441 23.9828C171.83 22.6296 171.241 21.2972 170.63 19.9441C170.002 18.4972 168.075 19.6164 168.302 21.0005C168.496 22.1974 168.564 23.3455 168.591 24.5423C168.144 24.6009 167.722 24.6215 167.271 24.6941C167.126 24.6107 166.982 24.5274 166.813 24.4822C166.255 24.3327 166.2 24.2286 166.674 24.5341C165.596 23.7842 164.58 25.6532 165.62 26.3927C165.475 26.3094 165.381 26.1948 165.301 26.1288C165.329 26.1809 165.329 26.1809 165.357 26.233C165.523 26.5453 165.761 26.8021 166.038 27.0104C166.713 27.5034 167.434 27.979 168.109 28.472C168.175 28.5345 168.253 28.5553 168.281 28.6074C168.137 29.6098 167.951 30.6156 167.719 31.6387C167.472 32.9254 169.297 33.7418 170.025 32.4796Z" fill="#6809EE"/>
<path d="M165.377 25.9998C165.201 25.6702 165.175 25.7673 165.377 25.9998V25.9998Z" fill="#6809EE"/>
<path d="M166.268 21.6891C165.559 20.8596 164.76 20.1549 163.806 19.6167C163.215 19.2799 162.463 20.1639 163.006 20.6811C163.788 21.3961 164.636 22.0696 165.48 22.7118C166.088 23.1423 166.687 22.2027 166.268 21.6891Z" fill="#6809EE"/>
<path d="M176.548 20.8006C176.424 20.1726 176.415 19.5309 176.43 18.851C176.462 18.2649 176.728 17.7413 176.873 17.2002C177.055 16.5205 176.28 16.0899 175.807 16.5579C174.54 17.8093 174.98 19.8006 175.572 21.2231C175.811 21.8372 176.657 21.3799 176.548 20.8006Z" fill="#6809EE"/>
<path d="M180.202 26.4183C179.376 25.5575 178.165 25.4562 177.188 24.793C176.831 24.5188 176.376 25.1255 176.711 25.483C177.51 26.2917 178.665 26.9133 179.708 27.3268C180.16 27.5074 180.485 26.7619 180.202 26.4183Z" fill="#6809EE"/>
<path d="M173.112 36.9935C172.977 36.4071 172.647 35.8728 172.499 35.283C172.337 34.6447 172.417 33.9822 172.678 33.3684C172.872 32.9592 172.364 32.4663 172.043 32.8858C170.998 34.2415 170.904 36.3573 172.043 37.6588C172.499 38.1377 173.239 37.6075 173.112 36.9935Z" fill="#6809EE"/>
<path d="M162.493 32.1422C163.163 32.1877 163.775 31.6678 164.472 31.7654C165.247 31.8838 165.605 30.7012 164.825 30.4475C164.033 30.2354 162.891 30.3457 162.177 30.7788C161.548 31.2051 161.874 32.0655 162.493 32.1422Z" fill="#6809EE"/>
<path d="M175.459 68.8763L175.47 68.8346C175.659 68.7515 175.793 68.5643 175.982 68.3771C176.266 68.0963 176.583 67.8988 176.761 67.5451C176.943 67.1776 176.732 66.7195 176.336 66.7469C175.566 66.7637 174.455 67.7448 174.779 68.56L174.768 68.6018C174.784 69.0076 175.27 69.2716 175.459 68.8763Z" fill="#6809EE"/>
<path d="M164.665 65.3001C164.68 64.6201 164.651 64.1069 164.383 63.4996C164.062 62.7744 163.516 62.2711 162.78 62.1631C162.316 62.1281 162.118 62.7141 162.286 63.0715C162.493 63.5434 162.879 63.8698 163.114 64.2896C163.32 64.6123 163.545 65.2229 163.606 65.4624C163.83 66.0279 164.702 65.9937 164.665 65.3001Z" fill="#6809EE"/>
<path d="M157.683 76.3052C158.239 75.9934 158.634 75.6086 159.281 75.7374C160.056 75.8558 160.415 74.6732 159.634 74.4195C159.087 74.2283 158.574 74.2247 158.04 74.3491C157.506 74.4736 156.636 74.9691 156.634 75.6524C156.628 76.2456 157.219 76.5826 157.683 76.3052Z" fill="#6809EE"/>
<path d="M166.479 84.4318C166.589 83.8665 166.354 83.4467 166.158 82.9331C165.973 82.3782 165.86 81.8126 165.714 81.268C165.533 80.4909 164.464 80.8439 164.555 81.5968C164.708 82.6341 164.829 84.3616 165.873 84.775C166.158 84.8515 166.459 84.6644 166.479 84.4318Z" fill="#6809EE"/>
<path d="M179.436 81.1826C180.144 81.2387 180.452 80.0872 179.822 79.74C178.406 79.0037 176.721 78.909 175.266 78.1623C174.519 77.7837 173.864 78.9315 174.613 79.3551C175.995 80.2161 177.803 81.1018 179.436 81.1826Z" fill="#6809EE"/>
<path d="M199.802 82.3574C200.862 82.5523 201.826 82.8998 202.831 83.3028C203.483 83.5668 204.005 82.7103 203.401 82.266C202.542 81.6793 201.53 81.3039 200.503 80.9842C199.645 80.7096 198.463 80.3481 197.561 80.7014C197.12 80.8954 196.876 81.6479 197.408 81.8945C198.129 82.2663 198.999 82.1869 199.802 82.3574Z" fill="#6809EE"/>
<path d="M204.311 95.8916C204.604 95.1078 204.017 94.4449 204.144 93.6611C204.281 92.8356 203.177 92.495 202.911 93.3308C202.684 94.177 202.706 95.5506 203.332 96.224C203.676 96.4947 204.157 96.3111 204.311 95.8916Z" fill="#6809EE"/>
<path d="M219.332 96.5119C219.729 96.4845 220.145 95.8672 219.721 95.5305C219.482 95.3326 219.196 95.2561 218.907 95.0895C218.527 94.8984 218.27 94.4578 218.112 94.0588C217.968 93.6632 217.287 93.6593 217.321 94.1588C217.463 95.2377 218.246 96.6222 219.332 96.5119Z" fill="#6809EE"/>
<path d="M222.494 81.703C222.843 81.3356 223.218 81.0791 223.635 80.9233C224.165 80.7086 224.748 80.7159 225.183 80.3866C225.506 80.1164 225.627 79.5093 225.193 79.2593C223.989 78.6689 222.358 79.8228 221.584 80.7902C221.122 81.4247 221.912 82.3202 222.494 81.703Z" fill="#6809EE"/>
<path d="M212.962 74.8673C213.189 74.0209 213.127 72.1756 212.031 72.1645C211.479 72.1502 211.302 72.6532 211.254 73.1457C211.215 73.4474 211.428 73.7424 211.53 74.0373C211.591 74.2767 211.62 74.4779 211.603 74.6964C211.505 75.5322 212.754 75.644 212.962 74.8673Z" fill="#6809EE"/>
<path d="M206.907 69.3323C206.726 68.243 205.972 67.2678 205.402 66.3862C204.859 65.5569 204.244 64.8419 203.525 64.2032C202.862 63.6686 201.943 64.5526 202.531 65.2155C203.146 65.9304 203.714 66.6628 204.179 67.4712C204.672 68.3317 205.031 69.3795 205.746 70.0321C206.293 70.5354 207.061 70.0572 206.907 69.3323Z" fill="#6809EE"/>
<path d="M183.267 70.8798C184.34 70.3497 185.168 69.3373 186.131 68.5992C186.453 68.3288 186.821 68.1 187.116 67.7776C187.299 67.5591 187.272 67.5071 187.437 67.3582C187.71 67.1189 187.435 66.5847 187.094 66.7163C186.955 66.7682 186.788 66.7681 186.597 66.8062C186.128 66.9481 185.713 67.2531 185.299 67.4991C184.27 68.1748 183.045 68.9025 182.496 70.0191C182.178 70.6328 182.725 71.1359 183.267 70.8798Z" fill="#6809EE"/>
<path d="M177.579 47.4688C178.46 47.6601 179.37 47.9486 180.273 48.0567C180.803 48.1542 181.007 47.3912 180.51 47.1689C179.663 46.8527 178.731 46.6475 177.884 46.3313C177.064 46.0671 176.295 45.7718 175.396 45.7539C174.921 45.7605 174.739 46.4403 175.147 46.6833C175.938 47.2076 176.737 47.2879 177.579 47.4688Z" fill="#6809EE"/>
<path d="M195.978 35.3299C196.13 33.8245 196.667 32.2883 197.098 30.9912C197.252 30.5716 196.873 30.0684 196.45 30.089C195.464 30.1369 195.155 31.2883 194.928 32.1345C194.642 33.2027 194.393 34.4444 194.531 35.5371C194.655 36.4771 195.89 36.1241 195.978 35.3299Z" fill="#6809EE"/>
<path d="M208.605 47.6343C209.71 47.6627 210.801 47.5385 211.869 47.1854C212.709 46.905 213.996 46.5659 214.06 45.4975C214.076 45.279 213.969 45.0569 213.773 44.9597C213.037 44.5395 212.174 45.2154 211.462 45.4855C210.522 45.8283 209.591 45.9803 208.627 46.0491C207.692 46.1109 207.667 47.6059 208.605 47.6343Z" fill="#6809EE"/>
<path d="M218.389 38.421C218.875 38.3727 218.9 37.6061 218.399 37.6058C217.758 37.6123 217.116 37.6189 216.471 37.6393C215.763 37.5833 215.06 37.3505 214.33 37.3778C213.933 37.4053 213.745 37.9497 214.114 38.1824C215.321 38.922 217.069 38.5727 218.389 38.421Z" fill="#6809EE"/>
<path d="M221.341 30.5738C221.256 29.9563 221.026 29.3596 220.852 28.7628C220.695 28.2598 220.671 27.6735 220.203 27.3992C220.058 27.3159 219.761 27.281 219.6 27.4162C219.01 27.8529 219.225 28.5051 219.452 29.0568C219.717 29.6778 220.023 30.2504 220.187 30.9338C220.402 31.6901 221.444 31.3301 221.341 30.5738Z" fill="#6809EE"/>
<path d="M227.623 31.5722C228.512 30.487 229.821 30.0647 230.79 29.1495C230.962 28.9728 231.094 28.6364 230.994 28.3866C230.95 28.2408 230.883 28.1784 230.828 28.0743C230.678 27.8556 230.342 27.8103 230.114 27.883C228.793 28.347 227.465 29.6712 226.788 30.9022C226.476 31.4431 227.191 32.0957 227.623 31.5722Z" fill="#6809EE"/>
<path d="M234.495 42.156C234.132 41.7464 233.674 41.4305 233.25 41.0938C232.759 40.6946 232.305 40.1566 231.836 39.6742C231.288 39.0217 230.433 39.982 230.942 40.624C231.735 41.6096 232.641 42.8485 233.851 43.2621C234.52 43.5157 234.886 42.6176 234.495 42.156Z" fill="#6809EE"/>
<path d="M221.828 48.6342C222.071 47.8816 222.148 47.1289 222.246 46.293C222.406 45.3843 222.648 44.4826 222.808 43.5739C222.912 42.8733 222.082 42.6508 221.861 43.3201C221.274 44.8876 220.549 46.9684 220.954 48.6232C221.049 49.154 221.666 49.0815 221.828 48.6342Z" fill="#6809EE"/>
</g>
<g opacity="0.7" clip-path="url(#clip1_212_53)">
<path d="M78.0113 191.785C75.2854 188.962 72.3041 186.415 69.36 183.847C69.3862 183.817 69.419 183.845 69.4451 183.814C71.1973 182.714 72.1516 179.96 72.9561 178.156C73.9936 175.791 74.7952 173.084 74.4181 170.43C74.2844 169.503 73.3346 169.133 72.5883 169.52C68.6778 171.533 64.7871 173.722 61.1191 176.049C61.0797 175.962 61.0404 175.875 60.9421 175.791C57.9365 172.676 54.6275 169.585 50.8191 167.41C49.9828 166.907 49.11 167.575 48.9293 168.34C48.0125 171.779 48.8366 177.183 51.196 180.17C50.5653 180.444 49.8976 180.739 49.2668 181.013C49.1228 181.049 48.9459 181.057 48.7932 181.103C48.4723 181.147 48.2476 181.344 48.1233 181.556C44.5095 183.221 40.9984 185.099 37.7385 187.279C36.8721 187.829 37.1351 189.467 38.3381 189.628C42.6955 190.276 47.0486 190.796 51.3948 190.993C52.3928 195.309 53.4433 199.563 55.323 203.642C55.7515 204.555 56.8497 204.84 57.5609 204.14C60.4078 201.271 62.8744 197.654 64.1338 193.747C65.8412 194.446 68.2161 194.319 69.9777 194.357C72.4641 194.432 74.9875 194.308 77.4233 194.021C78.5081 193.835 78.8217 192.583 78.0113 191.785Z" fill="#6809EE"/>
<path d="M108.437 188.692C106.639 186.662 104.616 184.563 102.395 182.984C102.816 182.16 102.999 181.061 103.166 180.18C103.392 179.03 103.418 177.851 103.14 176.695C103 175.974 102.373 175.492 101.644 175.682C100.123 176.114 98.6675 176.867 97.4085 177.788C95.8031 176.152 93.8769 174.825 92.0816 173.344C91.35 172.719 90.0514 173.023 89.9778 174.038C89.8046 176.54 90.4766 179.27 91.7179 181.531C89.9985 182.66 88.3686 183.971 86.6559 185.158C85.9075 185.703 86.131 186.989 87.1461 187.149C89.4035 187.558 91.7153 187.748 93.9725 187.892C94.1485 189.986 94.2327 192.054 94.4327 194.186C94.5206 195.233 95.7628 195.481 96.3868 194.883C98.0492 193.335 100.303 190.985 100.836 188.525C103.033 189.535 105.295 190.337 107.656 190.358C108.449 190.381 109.035 189.363 108.437 188.692Z" fill="#6809EE"/>
<path d="M76.9529 218.124C75.4485 217.652 73.9509 217.238 72.4793 216.794C72.5046 215.349 72.4447 213.849 72.3192 212.382C72.2181 211.218 70.6483 210.689 69.9657 211.555C68.9536 212.74 67.9721 214.022 67.0253 215.263C65.1937 214.776 63.4099 214.277 61.5762 213.859C60.2355 213.526 59.3571 215.373 60.4795 216.226C61.7331 217.191 62.8754 218.219 63.9392 219.34C63.1235 220.428 62.3078 221.515 61.4659 222.634C60.8617 223.407 61.7202 224.37 62.5256 224.245C62.8444 224.624 63.3356 224.778 63.8922 224.547C64.9943 224.075 66.127 223.7 67.2641 223.364C68.0527 224.408 68.7955 225.485 69.5909 226.588C70.2375 227.511 72.0297 227.381 72.0485 226.143C72.0802 224.757 72.1689 223.437 72.2336 222.079C73.9054 221.669 75.5621 221.3 77.1946 220.804C78.6263 220.366 78.1624 218.521 76.9529 218.124Z" fill="#6809EE"/>
<path d="M61.7329 153.994C62.6168 153.777 63.4898 153.551 64.3344 153.248C65.4671 152.873 65.4637 150.909 64.0512 150.727C63.3112 150.643 62.5733 150.489 61.8594 150.374C61.9612 149.171 62.1373 148.014 62.4226 146.862C62.7165 145.7 61.0025 144.943 60.2783 145.79C59.2989 147.003 58.337 148.196 57.3904 149.437C56.1154 149.16 54.8775 148.863 53.6026 148.586C52.2948 148.282 51.521 150.006 52.5933 150.851C53.325 151.476 54.1003 152.139 54.832 152.764C54.4566 152.938 54.1555 153.158 53.9112 153.444C53.4379 154.064 53.755 155.042 54.5934 155.21C55.4906 155.376 56.4663 155.184 57.3764 154.937C58.1408 155.59 58.9162 156.252 59.6806 156.905C60.587 157.679 61.8024 156.986 61.7406 155.909C61.7555 155.25 61.7835 154.62 61.7329 153.994Z" fill="#6809EE"/>
<path d="M31.4082 199.114C30.9385 198.448 30.5626 197.738 30.178 197.038C30.9069 196.583 31.6137 196.109 32.3119 195.557C33.2523 194.788 32.7601 193.131 31.4176 193.221C30.455 193.264 29.4596 193.28 28.5232 193.293C28.2259 192.491 27.9198 191.699 27.6813 190.895C27.2613 189.618 25.5763 189.91 25.3435 191.001C25.1956 191.793 24.9712 192.52 24.7795 193.275C23.2951 193.244 21.8391 193.202 20.3547 193.17C18.7786 193.114 18.959 195.335 20.3061 195.726C21.4698 196.066 22.5353 196.499 23.6271 196.99C23.4875 197.419 23.3241 197.809 23.1956 198.247C23.0582 198.342 22.9207 198.436 22.8073 198.569C22.4321 199.008 22.3143 199.014 22.7944 198.717C21.6531 199.368 22.9028 201.089 24.0179 200.469C23.8804 200.563 23.7363 200.599 23.6425 200.643C23.7015 200.64 23.7015 200.64 23.7604 200.638C24.114 200.622 24.448 200.518 24.7556 200.357C25.491 199.96 26.2307 199.515 26.966 199.118C27.0512 199.085 27.1035 199.023 27.1624 199.021C28.0054 199.582 28.8331 200.183 29.6564 200.833C30.7113 201.61 32.2342 200.314 31.4082 199.114Z" fill="#6809EE"/>
<path d="M23.5592 200.519C23.1859 200.536 23.2624 200.601 23.5592 200.519V200.519Z" fill="#6809EE"/>
<path d="M20.0514 197.859C18.9972 198.142 18.0174 198.559 17.1206 199.189C16.5621 199.577 17.0364 200.636 17.7369 200.369C18.719 199.971 19.6922 199.495 20.635 199.011C21.2852 198.647 20.6953 197.702 20.0514 197.859Z" fill="#6809EE"/>
<path d="M23.6757 188.198C23.0555 188.039 22.4726 187.771 21.8655 187.465C21.3502 187.183 20.9919 186.718 20.566 186.355C20.0309 185.897 19.3088 186.411 19.5274 187.04C20.1113 188.722 22.098 189.182 23.637 189.26C24.2941 189.309 24.2454 188.349 23.6757 188.198Z" fill="#6809EE"/>
<path d="M30.319 187.319C29.1863 187.694 28.5736 188.743 27.5545 189.339C27.153 189.544 27.5049 190.215 27.9719 190.067C29.0457 189.694 30.1039 188.919 30.9263 188.156C31.2841 187.825 30.7512 187.211 30.319 187.319Z" fill="#6809EE"/>
<path d="M36.8107 198.271C36.2233 198.141 35.5991 198.208 35.0031 198.088C34.3569 197.96 33.7935 197.602 33.3522 197.102C33.0661 196.751 32.4026 196.997 32.643 197.468C33.4168 198.994 35.2859 199.99 36.9512 199.522C37.5797 199.317 37.4197 198.421 36.8107 198.271Z" fill="#6809EE"/>
<path d="M27.8609 205.766C28.1901 205.182 27.9844 204.406 28.3726 203.818C28.8132 203.17 27.9002 202.337 27.3352 202.932C26.803 203.555 26.4107 204.634 26.4942 205.465C26.6082 206.216 27.525 206.292 27.8609 205.766Z" fill="#6809EE"/>
<path d="M66.5976 209.88L66.5648 209.852C66.5712 209.646 66.4598 209.445 66.3723 209.193C66.2411 208.816 66.1994 208.445 65.9569 208.132C65.7036 207.809 65.1992 207.802 65.0531 208.172C64.737 208.874 65.1439 210.3 66.0193 210.358L66.0522 210.386C66.4255 210.546 66.8728 210.221 66.5976 209.88Z" fill="#6809EE"/>
<path d="M58.723 218.083C58.1159 217.776 57.64 217.582 56.9763 217.562C56.1839 217.539 55.4943 217.816 55.0799 218.434C54.8488 218.837 55.292 219.269 55.6872 219.271C56.2023 219.287 56.6629 219.079 57.1431 219.048C57.5229 219.001 58.1712 219.06 58.4136 219.108C59.0205 219.149 59.3648 218.348 58.723 218.083Z" fill="#6809EE"/>
<path d="M65.6494 229.123C65.6075 228.487 65.4303 227.964 65.8251 227.436C66.2656 226.787 65.3527 225.954 64.7877 226.55C64.3796 226.961 64.1553 227.423 64.0376 227.958C63.92 228.494 63.9928 229.492 64.6084 229.789C65.1412 230.05 65.7 229.661 65.6494 229.123Z" fill="#6809EE"/>
<path d="M76.7714 224.682C76.3083 224.34 75.8282 224.372 75.2803 224.327C74.6997 224.256 74.1407 224.114 73.5863 224.011C72.8069 223.84 72.6656 224.956 73.384 225.199C74.3862 225.507 75.9976 226.141 76.8201 225.378C77.0119 225.153 76.9724 224.801 76.7714 224.682Z" fill="#6809EE"/>
<path d="M79.4172 211.589C79.7727 210.974 78.8663 210.2 78.2816 210.619C77.0074 211.58 76.1963 213.061 74.8959 214.052C74.2326 214.564 74.9864 215.649 75.6911 215.156C77.0636 214.278 78.6411 213.029 79.4172 211.589Z" fill="#6809EE"/>
<path d="M89.2463 193.714C89.8788 192.841 90.6074 192.12 91.4037 191.387C91.923 190.912 91.3744 190.072 90.7133 190.426C89.8143 190.948 89.0397 191.7 88.3091 192.489C87.6917 193.146 86.8562 194.057 86.787 195.023C86.772 195.505 87.3465 196.048 87.7981 195.675C88.444 195.184 88.7468 194.365 89.2463 193.714Z" fill="#6809EE"/>
<path d="M103.403 195.471C102.822 194.869 101.971 195.113 101.318 194.662C100.632 194.182 99.8491 195.033 100.489 195.632C101.155 196.201 102.404 196.773 103.282 196.498C103.674 196.303 103.715 195.791 103.403 195.471Z" fill="#6809EE"/>
<path d="M110.431 182.18C110.577 181.811 110.199 181.17 109.712 181.408C109.431 181.538 109.239 181.763 108.964 181.952C108.628 182.213 108.119 182.255 107.691 182.226C107.272 182.186 106.976 182.798 107.441 182.983C108.476 183.32 110.063 183.209 110.431 182.18Z" fill="#6809EE"/>
<path d="M98.4258 172.951C98.2444 172.478 98.1742 172.029 98.2133 171.585C98.2478 171.014 98.5051 170.492 98.3956 169.957C98.2907 169.549 97.7948 169.179 97.3824 169.462C96.3308 170.295 96.6703 172.264 97.2102 173.379C97.584 174.069 98.7321 173.742 98.4258 172.951Z" fill="#6809EE"/>
<path d="M88.1525 178.611C87.4862 178.042 85.7942 177.303 85.3123 178.287C85.0615 178.78 85.4395 179.155 85.8631 179.411C86.1186 179.577 86.4766 179.511 86.7866 179.546C87.0289 179.594 87.2232 179.654 87.4132 179.764C88.125 180.213 88.7639 179.133 88.1525 178.611Z" fill="#6809EE"/>
<path d="M80.5494 181.693C79.4883 181.387 78.2835 181.648 77.2423 181.783C76.26 181.916 75.3499 182.163 74.4639 182.537C73.6958 182.906 74.0982 184.115 74.9493 183.87C75.8595 183.623 76.7653 183.425 77.6951 183.353C78.6839 183.279 79.7842 183.406 80.6811 183.042C81.3707 182.765 81.2698 181.866 80.5494 181.693Z" fill="#6809EE"/>
<path d="M71.7676 203.696C71.7515 202.499 71.194 201.316 70.9424 200.129C70.8373 199.721 70.7889 199.291 70.625 198.886C70.5068 198.627 70.448 198.629 70.3847 198.416C70.2861 198.067 69.6859 198.084 69.6578 198.449C69.6448 198.597 69.5728 198.747 69.5249 198.936C69.451 199.421 69.5474 199.927 69.5913 200.406C69.758 201.626 69.8877 203.044 70.6589 204.021C71.0761 204.572 71.7656 204.295 71.7676 203.696Z" fill="#6809EE"/>
<path d="M48.1887 198.75C48.7406 198.037 49.3928 197.34 49.8791 196.572C50.1954 196.135 49.5947 195.622 49.1802 195.975C48.5301 196.603 47.9434 197.356 47.2933 197.985C46.7021 198.611 46.1043 199.178 45.701 199.982C45.5026 200.413 46.0377 200.87 46.4327 200.607C47.2466 200.118 47.663 199.431 48.1887 198.75Z" fill="#6809EE"/>
<path d="M45.1547 176.917C43.8618 176.131 42.7064 174.985 41.7213 174.038C41.409 173.718 40.7913 173.844 40.6278 174.234C40.2464 175.145 41.1528 175.92 41.8189 176.489C42.6598 177.207 43.6731 177.966 44.7189 178.312C45.6206 178.605 45.8337 177.339 45.1547 176.917Z" fill="#6809EE"/>
<path d="M61.6967 170.818C62.1982 169.833 62.5555 168.795 62.6967 167.679C62.8053 166.8 63.0533 165.492 62.1165 164.975C61.9265 164.866 61.6799 164.867 61.5075 165.002C60.8115 165.486 61.0501 166.555 60.9872 167.314C60.8918 168.31 60.6283 169.216 60.2752 170.116C59.9287 170.986 61.2672 171.652 61.6967 170.818Z" fill="#6809EE"/>
<path d="M57.5937 158.02C57.7593 157.561 57.078 157.208 56.8622 157.66C56.5919 158.242 56.3216 158.824 56.0622 159.415C55.7068 160.03 55.1941 160.564 54.9042 161.235C54.7582 161.605 55.1688 162.009 55.5376 161.776C56.7246 161.005 57.1623 159.277 57.5937 158.02Z" fill="#6809EE"/>
<path d="M51.7821 151.978C51.1882 151.788 50.5508 151.739 49.9373 151.639C49.4156 151.564 48.8762 151.333 48.4268 151.638C48.2893 151.733 48.1301 151.985 48.1826 152.189C48.3228 152.91 49.0039 152.997 49.5998 153.029C50.2744 153.057 50.9227 153.028 51.6104 153.174C52.3854 153.306 52.5091 152.21 51.7821 151.978Z" fill="#6809EE"/>
<path d="M55.3887 146.737C54.792 145.468 54.9745 144.104 54.5655 142.836C54.4803 142.604 54.2334 142.34 53.9649 142.323C53.8143 142.3 53.7292 142.334 53.6113 142.339C53.3494 142.38 53.164 142.664 53.1314 142.901C52.9817 144.292 53.6049 146.061 54.4242 147.203C54.7782 147.717 55.6751 147.353 55.3887 146.737Z" fill="#6809EE"/>
<path d="M67.8997 145.092C67.3737 145.243 66.8915 145.52 66.4048 145.758C65.8331 146.029 65.1521 146.207 64.5148 146.423C63.6898 146.637 64.1883 147.822 64.9871 147.639C66.2181 147.348 67.7263 147.064 68.6207 146.149C69.1377 145.654 68.4846 144.937 67.8997 145.092Z" fill="#6809EE"/>
<path d="M68.293 159.314C67.7185 158.77 67.0721 158.377 66.3602 157.928C65.609 157.393 64.8992 156.786 64.1479 156.251C63.5605 155.855 63.0021 156.509 63.511 156.996C64.673 158.201 66.2391 159.751 67.9071 160.098C68.4267 160.241 68.6272 159.653 68.293 159.314Z" fill="#6809EE"/>
</g>
<defs>
<clipPath id="clip0_212_53">
<rect width="86" height="86" fill="white" transform="translate(248.328 22.2584) rotate(105)"/>
</clipPath>
<clipPath id="clip1_212_53">
<rect width="86" height="86" fill="white" transform="translate(55.8965 124.04) rotate(40.5031)"/>
</clipPath>
</defs>
</svg>
