<svg width="134" height="134" viewBox="0 0 134 134" fill="none" xmlns="http://www.w3.org/2000/svg">
<path d="M87.0547 71.063C83.5917 67.4765 79.8042 64.2413 76.064 60.9792C76.0973 60.9403 76.1389 60.9759 76.1722 60.9369C78.3981 59.5389 79.6105 56.0405 80.6325 53.7488C81.9506 50.7448 82.969 47.3052 82.4899 43.9333C82.32 42.7557 81.1134 42.2861 80.1652 42.7781C75.1973 45.3355 70.2545 48.1163 65.5947 51.0715C65.5447 50.9614 65.4947 50.8514 65.3699 50.7448C61.5515 46.7874 57.3477 42.86 52.5096 40.0965C51.4471 39.4583 50.3384 40.3069 50.1088 41.2779C48.944 45.6473 49.991 52.512 52.9884 56.3068C52.1871 56.655 51.3389 57.0301 50.5375 57.3783C50.3546 57.4238 50.1299 57.4341 49.9358 57.4928C49.5282 57.5486 49.2427 57.7985 49.0848 58.0677C44.4938 60.1838 40.0333 62.5686 35.8919 65.3382C34.7913 66.0368 35.1254 68.1177 36.6536 68.3231C42.1894 69.1462 47.7195 69.8073 53.241 70.0571C54.5089 75.5395 55.8434 80.9439 58.2314 86.126C58.7757 87.2867 60.1709 87.6478 61.0744 86.7589C64.6911 83.1146 67.8247 78.5191 69.4246 73.556C71.5937 74.4437 74.6108 74.2825 76.8488 74.3312C80.0075 74.4256 83.2132 74.2684 86.3076 73.904C87.6859 73.667 88.0842 72.077 87.0547 71.063Z" fill="white"/>
<path d="M125.707 67.1343C123.423 64.5549 120.854 61.8887 118.032 59.8826C118.567 58.8354 118.799 57.44 119.012 56.3199C119.299 54.8596 119.331 53.361 118.978 51.8924C118.8 50.9772 118.004 50.3643 117.078 50.6058C115.145 51.1545 113.296 52.1115 111.697 53.2816C109.657 51.2028 107.21 49.5166 104.93 47.6358C104 46.8419 102.35 47.2283 102.257 48.5176C102.037 51.6964 102.891 55.1639 104.468 58.0371C102.283 59.4707 100.213 61.1362 98.0369 62.6444C97.0861 63.3361 97.37 64.9702 98.6596 65.174C101.527 65.6933 104.464 65.935 107.332 66.1174C107.555 68.7773 107.662 71.405 107.917 74.1134C108.028 75.4432 109.606 75.7588 110.399 74.9995C112.511 73.0326 115.374 70.0463 116.051 66.9215C118.842 68.2054 121.715 69.2235 124.716 69.2501C125.723 69.2795 126.468 67.9858 125.707 67.1343Z" fill="white"/>
<path d="M85.7091 104.525C83.7979 103.925 81.8955 103.399 80.0259 102.835C80.058 101 79.9819 99.0942 79.8226 97.2298C79.6941 95.7509 77.6998 95.0799 76.8326 96.1797C75.5468 97.685 74.2999 99.3133 73.0972 100.89C70.7702 100.271 68.5042 99.6371 66.1745 99.1061C64.4713 98.6839 63.3554 101.03 64.7813 102.113C66.3739 103.339 67.8251 104.646 69.1765 106.07C68.1402 107.451 67.104 108.833 66.0344 110.254C65.2668 111.237 66.3574 112.46 67.3806 112.302C67.7857 112.782 68.4098 112.979 69.1169 112.685C70.5169 112.085 71.9559 111.608 73.4005 111.181C74.4023 112.509 75.346 113.876 76.3564 115.277C77.1779 116.451 79.4547 116.285 79.4786 114.712C79.5189 112.951 79.6316 111.274 79.7138 109.549C81.8376 109.029 83.9423 108.56 86.0162 107.929C87.835 107.373 87.2458 105.029 85.7091 104.525Z" fill="white"/>
<path d="M66.3743 23.0535C67.4972 22.7782 68.6063 22.4911 69.6793 22.1058C71.1182 21.6291 71.1139 19.134 69.3195 18.9031C68.3794 18.7958 67.4419 18.6011 66.535 18.4549C66.6644 16.9269 66.8881 15.4571 67.2504 13.9935C67.6239 12.5169 65.4464 11.5547 64.5264 12.6317C63.2822 14.1726 62.0602 15.6875 60.8576 17.2639C59.2378 16.9129 57.6652 16.5347 56.0455 16.1836C54.3841 15.797 53.401 17.9874 54.7633 19.0612C55.6928 19.8552 56.6778 20.6965 57.6073 21.4905C57.1305 21.7116 56.748 21.9909 56.4376 22.3543C55.8363 23.1425 56.2392 24.3844 57.3042 24.5983C58.4441 24.8089 59.6836 24.5658 60.8398 24.2516C61.8109 25.0811 62.7959 25.9224 63.767 26.7519C64.9185 27.7355 66.4626 26.8548 66.3841 25.486C66.403 24.6492 66.4385 23.8491 66.3743 23.0535Z" fill="white"/>
<path d="M27.8493 80.3744C27.2525 79.528 26.775 78.6263 26.2863 77.7376C27.2123 77.1592 28.1103 76.5573 28.9973 75.856C30.1919 74.8789 29.5667 72.7736 27.8612 72.888C26.6383 72.9432 25.3738 72.9629 24.1841 72.9792C23.8064 71.9606 23.4175 70.955 23.1145 69.9333C22.581 68.3105 20.4404 68.6816 20.1446 70.0673C19.9567 71.0739 19.6716 71.9975 19.4281 72.9568C17.5423 72.9172 15.6926 72.8635 13.8068 72.8239C11.8046 72.7521 12.0337 75.5739 13.7451 76.0705C15.2234 76.5028 16.5771 77.0531 17.9641 77.6767C17.7868 78.2213 17.5791 78.7172 17.416 79.2734C17.2413 79.3936 17.0667 79.5138 16.9226 79.6825C16.446 80.2405 16.2963 80.2471 16.9062 79.8702C15.4563 80.6968 17.044 82.8833 18.4606 82.0957C18.2859 82.2159 18.1028 82.2617 17.9836 82.317C18.0586 82.3135 18.0586 82.3135 18.1335 82.3101C18.5827 82.2899 19.0069 82.1584 19.3977 81.9537C20.332 81.4498 21.2717 80.8835 22.2059 80.3797C22.3141 80.3373 22.3805 80.2595 22.4554 80.2561C23.5263 80.9689 24.5778 81.7324 25.6238 82.5585C26.9639 83.546 28.8986 81.899 27.8493 80.3744Z" fill="white"/>
<path d="M17.8771 82.159C17.403 82.1804 17.5001 82.2634 17.8771 82.159V82.159Z" fill="white"/>
<path d="M13.422 78.7796C12.0828 79.1395 10.838 79.6698 9.69874 80.4698C8.98923 80.9633 9.59174 82.3087 10.4817 81.9691C11.7293 81.4636 12.9658 80.8588 14.1634 80.2433C14.9895 79.7818 14.24 78.5805 13.422 78.7796Z" fill="white"/>
<path d="M18.026 66.507C17.2382 66.3057 16.4977 65.9647 15.7264 65.5754C15.0718 65.2181 14.6165 64.6274 14.0755 64.1653C13.3957 63.5846 12.4783 64.2372 12.7561 65.0357C13.4979 67.1731 16.0218 67.7578 17.977 67.8567C18.8117 67.9188 18.7498 66.6991 18.026 66.507Z" fill="white"/>
<path d="M26.466 65.3894C25.027 65.8661 24.2486 67.1988 22.954 67.9559C22.4439 68.216 22.8909 69.0692 23.4842 68.8802C24.8483 68.4069 26.1927 67.4229 27.2376 66.4525C27.6921 66.0327 27.0151 65.2522 26.466 65.3894Z" fill="white"/>
<path d="M34.7134 79.3034C33.9673 79.1376 33.1743 79.2232 32.4171 79.0702C31.5962 78.9077 30.8804 78.4534 30.3198 77.8175C29.9564 77.3721 29.1134 77.6848 29.4188 78.2823C30.4019 80.2216 32.7764 81.4869 34.8919 80.8924C35.6904 80.6317 35.4872 79.4932 34.7134 79.3034Z" fill="white"/>
<path d="M23.3428 88.8252C23.761 88.0827 23.4998 87.0964 23.9929 86.3505C24.5526 85.5267 23.3927 84.4687 22.675 85.2247C21.9988 86.0163 21.5005 87.3862 21.6065 88.442C21.7513 89.3961 22.9161 89.4932 23.3428 88.8252Z" fill="white"/>
<path d="M72.5547 94.0516L72.5131 94.016C72.5212 93.7537 72.3797 93.4981 72.2685 93.1787C72.1018 92.6996 72.0489 92.2279 71.7408 91.8301C71.4189 91.4203 70.7782 91.4119 70.5926 91.8818C70.191 92.7733 70.708 94.5842 71.8201 94.6586L71.8618 94.6942C72.3362 94.8974 72.9044 94.485 72.5547 94.0516Z" fill="white"/>
<path d="M62.5504 104.472C61.7791 104.083 61.1745 103.836 60.3313 103.811C59.3246 103.782 58.4485 104.133 57.9221 104.918C57.6285 105.43 58.1917 105.979 58.6936 105.981C59.3481 106.002 59.9332 105.738 60.5433 105.698C61.0258 105.639 61.8493 105.714 62.1573 105.775C62.9283 105.827 63.3657 104.81 62.5504 104.472Z" fill="white"/>
<path d="M71.3495 118.498C71.2963 117.689 71.0713 117.026 71.5728 116.354C72.1325 115.53 70.9726 114.472 70.2549 115.228C69.7365 115.751 69.4515 116.338 69.3019 117.018C69.1526 117.699 69.245 118.967 70.0272 119.344C70.704 119.675 71.4139 119.181 71.3495 118.498Z" fill="white"/>
<path d="M85.4794 112.857C84.8911 112.422 84.2812 112.462 83.5851 112.406C82.8475 112.314 82.1373 112.134 81.433 112.004C80.4428 111.787 80.2633 113.204 81.176 113.513C82.4493 113.904 84.4964 114.71 85.5412 113.74C85.785 113.454 85.7348 113.007 85.4794 112.857Z" fill="white"/>
<path d="M88.8407 96.2234C89.2923 95.4421 88.1409 94.4585 87.398 94.9911C85.7792 96.2121 84.7489 98.0925 83.0968 99.3525C82.2541 100.002 83.2117 101.381 84.1071 100.754C85.8507 99.6396 87.8547 98.052 88.8407 96.2234Z" fill="white"/>
<path d="M101.328 73.5144C102.131 72.4052 103.057 71.49 104.068 70.5585C104.728 69.9548 104.031 68.8882 103.191 69.338C102.049 70.0009 101.065 70.956 100.137 71.9587C99.3527 72.7926 98.2913 73.9509 98.2033 75.1776C98.1843 75.7898 98.9141 76.4805 99.4878 76.0054C100.308 75.3821 100.693 74.3416 101.328 73.5144Z" fill="white"/>
<path d="M119.313 75.7465C118.575 74.9814 117.493 75.2922 116.664 74.7183C115.793 74.1088 114.798 75.1893 115.611 75.9511C116.457 76.6739 118.044 77.4008 119.158 77.051C119.657 76.8039 119.709 76.1527 119.313 75.7465Z" fill="white"/>
<path d="M128.24 58.8618C128.426 58.3919 127.946 57.5776 127.327 57.8799C126.97 58.0458 126.726 58.3313 126.377 58.5716C125.95 58.9028 125.304 58.9569 124.76 58.9191C124.228 58.8683 123.851 59.6464 124.442 59.8817C125.757 60.3089 127.773 60.168 128.24 58.8618Z" fill="white"/>
<path d="M112.99 47.1362C112.759 46.5353 112.67 45.9654 112.72 45.4017C112.764 44.6761 113.09 44.0126 112.951 43.3327C112.818 42.8148 112.188 42.344 111.664 42.7046C110.328 43.763 110.759 46.2636 111.445 47.6801C111.92 48.5569 113.379 48.1419 112.99 47.1362Z" fill="white"/>
<path d="M99.9378 54.3273C99.0914 53.6043 96.9417 52.6659 96.3297 53.9163C96.011 54.5419 96.4912 55.0194 97.0294 55.3444C97.354 55.5543 97.8087 55.4714 98.2025 55.516C98.5104 55.577 98.7573 55.6532 98.9986 55.792C99.9029 56.3624 100.715 54.9908 99.9378 54.3273Z" fill="white"/>
<path d="M90.2793 58.2418C88.9313 57.8535 87.4008 58.1846 86.0779 58.3565C84.8301 58.5251 83.6739 58.8393 82.5483 59.3143C81.5724 59.7826 82.0837 61.3191 83.165 61.0083C84.3212 60.694 85.4721 60.4426 86.6532 60.3517C87.9094 60.2576 89.3072 60.419 90.4467 59.9559C91.3228 59.6044 91.1945 58.4624 90.2793 58.2418Z" fill="white"/>
<path d="M79.1228 86.1959C79.1024 84.6747 78.3942 83.1719 78.0745 81.6643C77.941 81.1463 77.8795 80.6 77.6712 80.0854C77.5212 79.7555 77.4464 79.7587 77.366 79.488C77.2407 79.0444 76.4783 79.0664 76.4425 79.5297C76.426 79.7176 76.3346 79.9088 76.2737 80.1486C76.1798 80.7642 76.3023 81.4075 76.3581 82.0163C76.5698 83.5663 76.7346 85.3679 77.7143 86.6088C78.2444 87.3085 79.1202 86.957 79.1228 86.1959Z" fill="white"/>
<path d="M49.1683 79.9114C49.8693 79.0064 50.6979 78.1206 51.3157 77.1445C51.7175 76.5899 50.9545 75.9381 50.4278 76.3861C49.6019 77.1844 48.8566 78.1414 48.0307 78.9397C47.2796 79.7347 46.5202 80.4552 46.0078 81.4764C45.7558 82.0243 46.4356 82.6049 46.9374 82.2704C47.9713 81.6498 48.5004 80.7776 49.1683 79.9114Z" fill="white"/>
<path d="M45.3131 52.1758C43.6706 51.1771 42.2028 49.7211 40.9513 48.5176C40.5546 48.1112 39.7699 48.2714 39.5622 48.7673C39.0776 49.9245 40.2291 50.9081 41.0754 51.631C42.1436 52.5434 43.4309 53.5084 44.7596 53.9475C45.905 54.3201 46.1758 52.7109 45.3131 52.1758Z" fill="white"/>
<path d="M66.3289 44.426C66.9659 43.1745 67.4199 41.8565 67.5992 40.4385C67.7372 39.3219 68.0523 37.6608 66.8622 37.0034C66.6209 36.8645 66.3075 36.8662 66.0885 37.0383C65.2043 37.6521 65.5074 39.0109 65.4276 39.9751C65.3063 41.2407 64.9715 42.3912 64.523 43.5343C64.0827 44.6397 65.7832 45.4862 66.3289 44.426Z" fill="white"/>
<path d="M61.1164 28.1688C61.3267 27.5854 60.4612 27.1379 60.1871 27.7117C59.8436 28.4508 59.5002 29.19 59.1707 29.9409C58.7192 30.7224 58.0679 31.4006 57.6996 32.2531C57.5141 32.7231 58.0358 33.2361 58.5042 32.9404C60.0122 31.9616 60.5683 29.7656 61.1164 28.1688Z" fill="white"/>
<path d="M53.7332 20.4925C52.9788 20.2521 52.169 20.1888 51.3896 20.0618C50.7268 19.9669 50.0416 19.6735 49.4706 20.0611C49.296 20.1813 49.0937 20.5023 49.1604 20.7613C49.3385 21.6765 50.2038 21.7872 50.9609 21.8278C51.8178 21.864 52.6414 21.8268 53.5151 22.012C54.4997 22.1796 54.6569 20.7876 53.7332 20.4925Z" fill="white"/>
<path d="M58.3143 13.8348C57.5562 12.2221 57.7881 10.4899 57.2685 8.87894C57.1601 8.5844 56.8465 8.24921 56.5054 8.22719C56.3141 8.1984 56.2059 8.24071 56.0562 8.24747C55.7234 8.29992 55.488 8.65989 55.4465 8.9612C55.2563 10.729 56.0481 12.9764 57.0889 14.4266C57.5386 15.08 58.678 14.6169 58.3143 13.8348Z" fill="white"/>
<path d="M74.2088 11.7445C73.5406 11.9369 72.9279 12.2889 72.3097 12.5913C71.5833 12.936 70.7183 13.1622 69.9087 13.4358C68.8606 13.7077 69.4938 15.2137 70.5086 14.9808C72.0725 14.6107 73.9885 14.2498 75.1248 13.088C75.7816 12.4595 74.9519 11.5488 74.2088 11.7445Z" fill="white"/>
<path d="M74.7077 29.8124C73.978 29.1217 73.1568 28.6223 72.2524 28.0518C71.298 27.3713 70.3962 26.601 69.4418 25.9205C68.6955 25.4177 67.9861 26.2482 68.6327 26.8678C70.1089 28.3981 72.0985 30.3669 74.2175 30.8077C74.8776 30.99 75.1323 30.2424 74.7077 29.8124Z" fill="white"/>
</svg>
