<svg width="60" height="60" viewBox="0 0 60 60" fill="none" xmlns="http://www.w3.org/2000/svg">
<path d="M42.4291 25.9177C39.7038 25.6553 36.9682 25.6553 34.2429 25.6272C34.2429 25.599 34.273 25.599 34.273 25.5709C34.7038 24.1932 33.9623 22.2999 33.5716 20.9784C33.0506 19.2539 32.249 17.4543 30.8462 16.2172C30.3552 15.786 29.6839 16.0204 29.4635 16.564C28.3011 19.4038 27.229 22.328 26.3372 25.2241C26.2771 25.196 26.217 25.1679 26.1268 25.1679C23.1209 24.8774 19.9646 24.7368 16.9586 25.3085C16.2873 25.421 16.127 26.1708 16.3775 26.6581C17.4496 28.8982 20.3353 31.3913 22.9405 31.9067C22.7301 32.338 22.5097 32.7971 22.2992 33.2284C22.2391 33.3126 22.1489 33.3971 22.0888 33.4908C21.9385 33.6595 21.9085 33.8657 21.9385 34.0344C20.7762 36.5556 19.7642 39.1424 19.0227 41.7761C18.8123 42.4604 19.6941 43.2102 20.4055 42.7508C23.0107 41.12 25.5557 39.4236 27.9505 37.5585C30.4354 39.3956 32.9203 41.1763 35.7659 42.4885C36.4071 42.779 37.1185 42.4322 37.1788 41.7387C37.3892 38.9269 37.0585 35.8902 35.9563 33.2471C37.1788 32.8441 38.3811 31.7006 39.333 30.9227C40.6857 29.8355 41.9683 28.6265 43.1305 27.3705C43.6214 26.78 43.2207 25.9739 42.4291 25.9177Z" fill="black"/>
<path d="M57.1683 10.4901C55.2946 10.2276 53.2706 10.0308 51.3768 10.1995C51.2265 9.57155 50.8257 8.9061 50.515 8.3625C50.1142 7.65019 49.5932 7.01286 48.9219 6.52549C48.5212 6.20682 47.9701 6.23494 47.6695 6.66607C47.0581 7.58458 46.6274 8.64367 46.3769 9.70276C44.7837 9.56218 43.1605 9.73088 41.5373 9.759C40.866 9.759 40.3149 10.5088 40.7357 11.0805C41.7777 12.4864 43.3709 13.6298 45.0543 14.2672C44.6535 15.6449 44.3829 17.0789 44.0123 18.4848C43.862 19.1128 44.5634 19.6939 45.1746 19.319C46.5574 18.5129 47.87 17.5663 49.1325 16.6197C50.1745 17.6506 51.1565 18.7097 52.2286 19.7501C52.7495 20.2656 53.5211 19.8344 53.5813 19.2346C53.7617 17.66 53.8919 15.3919 53.0603 13.8454C54.6835 13.3862 56.2466 12.7863 57.509 11.7272C57.9398 11.3804 57.7895 10.5744 57.1683 10.4901Z" fill="black"/>
<path d="M53.8022 40.3698C52.7902 40.801 51.8083 41.2601 50.8264 41.6914C50.1851 40.9135 49.4737 40.1449 48.7421 39.4232C48.161 38.8515 47.0888 39.2826 47.119 40.0512C47.119 41.1384 47.1791 42.2631 47.2391 43.3503C46.0469 43.922 44.8745 44.4655 43.7122 45.0748C42.8504 45.506 43.2213 46.8836 44.2031 46.8274C45.3053 46.7712 46.3774 46.7993 47.4496 46.9118C47.5097 47.8584 47.5698 48.8049 47.6299 49.7798C47.66 50.4639 48.5517 50.5858 48.9225 50.1547C49.2631 50.2109 49.5937 50.0703 49.7842 49.6954C50.1549 48.9456 50.5858 48.2333 51.0367 47.5397C51.9284 47.7366 52.8102 47.971 53.732 48.1958C54.4935 48.3927 55.3853 47.5116 54.8342 46.8463C54.2229 46.0965 53.6718 45.356 53.0908 44.6062C53.7921 43.6316 54.5036 42.6849 55.1448 41.682C55.7059 40.801 54.6238 40.0323 53.8022 40.3698Z" fill="black"/>
<path d="M16.6691 13.2456C17.0398 12.7301 17.4005 12.2146 17.7112 11.671C18.142 10.9587 17.2502 9.91837 16.4186 10.462C15.9877 10.7525 15.5268 11.0056 15.096 11.268C14.605 10.5838 14.1741 9.89026 13.8034 9.14983C13.4327 8.40003 12.1802 8.77493 12.1802 9.55285C12.2102 10.6401 12.2403 11.7085 12.3004 12.7957C11.4988 13.2269 10.7073 13.6299 9.90568 14.061C9.07403 14.4922 9.44476 15.7574 10.3967 15.72C11.068 15.72 11.7794 15.72 12.4507 15.72C12.3305 15.9824 12.2704 16.2354 12.2704 16.4979C12.3004 17.0415 12.9116 17.4164 13.4327 17.1258C13.9838 16.8072 14.4146 16.2636 14.7854 15.72C15.4868 15.72 16.1982 15.72 16.8996 15.72C17.7312 15.72 18.0619 14.8014 17.5408 14.2578C17.2502 13.9017 16.9797 13.5549 16.6691 13.2456Z" fill="black"/>
<path d="M21.0273 50.9228C20.4762 50.7822 19.9552 50.576 19.4342 50.3792C19.6145 49.8074 19.7749 49.2357 19.8951 48.6265C20.0454 47.7924 19.0334 47.1363 18.362 47.7924C17.8711 48.2516 17.35 48.7109 16.8591 49.142C16.338 48.8514 15.817 48.5702 15.326 48.2516C14.5244 47.7642 13.7629 48.6828 14.1337 49.3668C14.4142 49.8542 14.6246 50.3416 14.8651 50.8291C14.0635 51.4851 13.2719 52.1225 12.4704 52.7785C11.6086 53.4627 12.7108 54.5593 13.6026 54.1563C14.3741 53.8095 15.1356 53.5565 15.9372 53.3221C16.0575 53.6128 16.1477 53.894 16.2779 54.1844C16.2479 54.2969 16.2178 54.4094 16.2178 54.5312C16.2178 54.9342 16.1577 54.9904 16.2779 54.6155C15.9673 55.4777 17.4102 55.8245 17.7208 54.9904C17.6907 55.1028 17.6306 55.1873 17.6005 55.2529C17.6306 55.2247 17.6306 55.2247 17.6607 55.1965C17.841 55.0278 17.9713 54.8216 18.0615 54.5968C18.2719 54.0531 18.4622 53.4815 18.6727 52.9379C18.7027 52.8815 18.7027 52.8254 18.7328 52.7973C19.4342 52.7129 20.1456 52.6567 20.877 52.6286C21.7888 52.563 22.0093 51.1851 21.0273 50.9228Z" fill="black"/>
<path d="M17.4998 55.2251C17.3094 55.4032 17.3795 55.4032 17.4998 55.2251V55.2251Z" fill="black"/>
<path d="M14.4339 55.4029C14.003 56.0309 13.6724 56.6963 13.482 57.4367C13.3618 57.8959 14.0932 58.2428 14.3437 57.7835C14.6844 57.1274 14.985 56.4339 15.2655 55.7497C15.4459 55.2623 14.7044 55.028 14.4339 55.4029Z" fill="black"/>
<path d="M11.9788 48.6358C11.578 48.8327 11.1472 48.9545 10.6862 49.0671C10.2854 49.1513 9.88465 49.0671 9.49388 49.0671C9.0029 49.0671 8.8526 49.6668 9.2534 49.9011C10.3255 50.5291 11.588 49.873 12.4397 49.2169C12.8105 48.9451 12.3495 48.4578 11.9788 48.6358Z" fill="black"/>
<path d="M15.105 45.1594C14.6741 45.8717 14.8244 46.7059 14.5539 47.4838C14.4337 47.7743 14.9246 47.9711 15.105 47.6806C15.5058 46.9964 15.7162 46.106 15.8064 45.3281C15.8465 44.9907 15.2853 44.9062 15.105 45.1594Z" fill="black"/>
<path d="M23.5117 48.0271C23.1409 48.224 22.8404 48.5426 22.4696 48.7488C22.0688 48.9737 21.6079 49.0393 21.147 48.9737C20.8364 48.9174 20.5959 49.3486 20.9366 49.4892C22.0388 49.9484 23.4816 49.6298 24.153 48.6269C24.3934 48.2333 23.9025 47.8304 23.5117 48.0271Z" fill="black"/>
<path d="M22.1598 56.0591C22.0696 55.5998 21.6087 55.2812 21.5486 54.7938C21.4884 54.2502 20.6267 54.2221 20.5967 54.7938C20.5967 55.3655 20.8772 56.1153 21.2981 56.5183C21.6989 56.8651 22.2199 56.4902 22.1598 56.0591Z" fill="black"/>
<path d="M44.5738 40.6885H44.5437C44.4535 40.5761 44.3032 40.5198 44.1429 40.4261C43.9024 40.2855 43.7121 40.1074 43.4415 40.0512C43.161 39.9949 42.8904 40.2199 42.9805 40.4823C43.1308 40.9978 43.9926 41.5696 44.4835 41.204H44.5137C44.7842 41.1197 44.8744 40.7448 44.5738 40.6885Z" fill="black"/>
<path d="M44.1128 48.6083C43.6518 48.7208 43.3112 48.8333 42.9504 49.1238C42.5196 49.4706 42.2791 49.9298 42.3392 50.4453C42.3993 50.764 42.8301 50.7921 43.0406 50.6141C43.3212 50.3892 43.4715 50.0704 43.7119 49.8361C43.8923 49.6393 44.263 49.377 44.4133 49.2925C44.754 49.0395 44.5736 48.4585 44.1128 48.6083Z" fill="black"/>
<path d="M52.79 51.3262C52.4794 51.0075 52.1488 50.8107 52.1187 50.3514C52.0586 49.8078 51.1969 49.7797 51.1668 50.3514C51.1368 50.7545 51.227 51.1012 51.4073 51.4387C51.5877 51.7761 52.0786 52.2728 52.5395 52.151C52.9403 52.0479 53.0607 51.5886 52.79 51.3262Z" fill="black"/>
<path d="M56.6782 43.9308C56.2774 43.959 56.037 44.1933 55.7263 44.4182C55.3857 44.6431 55.0249 44.8212 54.6843 45.018C54.1933 45.2804 54.6241 45.9365 55.1152 45.7397C55.7865 45.4491 56.9288 45.0554 57.0189 44.2775C57.0189 44.0714 56.8386 43.9027 56.6782 43.9308Z" fill="black"/>
<path d="M52.149 35.7864C52.0589 35.2991 51.2273 35.2991 51.1071 35.7864C50.8666 36.8736 51.1071 38.0264 50.8666 39.1418C50.7463 39.7135 51.6381 39.9478 51.7884 39.3667C52.119 38.2794 52.3895 36.9017 52.149 35.7864Z" fill="black"/>
<path d="M49.2633 21.85C49.2032 21.1002 49.2633 20.3879 49.3535 19.6381C49.4136 19.1508 48.7421 18.9539 48.5519 19.4413C48.3114 20.1255 48.2412 20.8753 48.2112 21.6251C48.1811 22.2531 48.1511 23.1153 48.5519 23.6589C48.7623 23.9214 49.3134 23.9495 49.3835 23.5465C49.5039 22.9935 49.2933 22.4218 49.2633 21.85Z" fill="black"/>
<path d="M57.5695 16.3671C56.9884 16.3108 56.6477 16.8263 56.0966 16.8826C55.5155 16.9388 55.4854 17.7448 56.0966 17.7729C56.7078 17.7729 57.6297 17.5105 57.9703 16.9669C58.0906 16.6857 57.8801 16.3952 57.5695 16.3671Z" fill="black"/>
<path d="M55.2751 6.13162C55.1851 5.86919 54.694 5.70049 54.5437 6.04727C54.4535 6.24409 54.4535 6.45029 54.3934 6.67523C54.3333 6.96577 54.0828 7.21883 53.8423 7.39691C53.6018 7.56561 53.7221 8.02487 54.0527 7.9124C54.7541 7.62185 55.5457 6.84393 55.2751 6.13162Z" fill="black"/>
<path d="M44.7246 6.6755C44.414 6.50679 44.1735 6.3006 43.9932 6.04754C43.7527 5.72887 43.6525 5.33523 43.3519 5.10091C43.1115 4.93221 42.6806 4.96033 42.5904 5.29774C42.41 6.21624 43.4821 7.10663 44.2737 7.45341C44.7848 7.65024 45.2458 6.95667 44.7246 6.6755Z" fill="black"/>
<path d="M41.8391 14.333C41.2278 14.333 39.9954 14.7079 40.1858 15.4483C40.2759 15.8232 40.6467 15.8514 40.9874 15.7951C41.1978 15.767 41.3581 15.5702 41.5385 15.4483C41.6888 15.364 41.819 15.3077 41.9693 15.2796C42.5504 15.1953 42.4001 14.333 41.8391 14.333Z" fill="black"/>
<path d="M39.2024 19.4131C38.501 19.7317 37.98 20.4159 37.4889 20.9595C37.028 21.475 36.6573 22.0186 36.3567 22.6185C36.1162 23.1621 36.8777 23.6213 37.2184 23.1058C37.5891 22.5622 37.98 22.0467 38.4408 21.5875C38.9318 21.1001 39.5731 20.669 39.8837 20.0691C40.1241 19.6099 39.6632 19.1787 39.2024 19.4131Z" fill="black"/>
<path d="M44.5141 35.0648C43.963 34.4369 43.1313 34.062 42.4601 33.5465C42.2196 33.3778 41.999 33.1716 41.7285 33.031C41.5481 32.9467 41.5181 32.9748 41.3879 32.8904C41.1774 32.7498 40.8669 33.031 41.0172 33.2372C41.0773 33.3215 41.1074 33.434 41.1675 33.5559C41.3478 33.8464 41.6284 34.0713 41.8689 34.3057C42.5102 34.8774 43.2216 35.5709 44.0733 35.7397C44.5442 35.8427 44.7846 35.3836 44.5141 35.0648Z" fill="black"/>
<path d="M29.7645 43.1254C29.7344 42.4974 29.7645 41.832 29.6743 41.204C29.6442 40.8291 29.0931 40.8291 29.033 41.204C28.9729 41.832 29.003 42.4974 28.9428 43.1254C28.9128 43.7252 28.8527 44.297 29.003 44.9062C29.0931 45.2248 29.5841 45.2248 29.6743 44.9062C29.8847 44.2782 29.7945 43.7253 29.7645 43.1254Z" fill="black"/>
<path d="M18.2617 32.9185C17.2197 33.0873 16.0874 33.0029 15.1355 32.9467C14.8249 32.9185 14.5544 33.2653 14.6445 33.5465C14.855 34.2026 15.6866 34.2026 16.2978 34.2026C17.0694 34.2026 17.9511 34.1463 18.6625 33.8558C19.2737 33.6028 18.8128 32.8343 18.2617 32.9185Z" fill="black"/>
<path d="M24.2735 22.187C24.0931 21.4372 23.8126 20.7248 23.3817 20.0688C23.041 19.5533 22.5801 18.7472 21.8487 18.8972C21.6984 18.9253 21.5681 19.0378 21.538 19.1877C21.3877 19.7595 21.999 20.2187 22.3096 20.6499C22.7104 21.2216 22.9809 21.8214 23.2013 22.4588C23.4118 23.0773 24.4238 22.8243 24.2735 22.187Z" fill="black"/>
<path d="M16.2978 17.2571C16.1776 16.9385 15.6566 17.0603 15.7468 17.3977C15.867 17.8289 15.9872 18.26 16.1175 18.6911C16.2077 19.1785 16.1776 19.694 16.3279 20.1814C16.4181 20.4438 16.8189 20.4719 16.9091 20.1814C17.1896 19.2347 16.6385 18.1194 16.2978 17.2571Z" fill="black"/>
<path d="M10.4769 16.6854C10.0761 16.8541 9.71539 17.1165 9.34466 17.3414C9.03404 17.5383 8.64327 17.6601 8.54307 18.0256C8.51301 18.1381 8.54307 18.3443 8.66331 18.4286C9.0641 18.7473 9.4649 18.4849 9.79555 18.2318C10.1663 17.9413 10.4969 17.632 10.9278 17.3977C11.3987 17.1165 10.9679 16.4792 10.4769 16.6854Z" fill="black"/>
<path d="M10.0151 12.2706C9.12336 11.8676 8.60233 11.0616 7.81076 10.5742C7.66046 10.4898 7.40996 10.4617 7.25966 10.5742C7.16948 10.6304 7.13942 10.6867 7.07931 10.7429C6.95907 10.8835 6.98913 11.1178 7.07931 11.2584C7.6304 12.0644 8.76265 12.7205 9.71453 12.9548C10.1354 13.0673 10.446 12.4674 10.0151 12.2706Z" fill="black"/>
<path d="M15.9068 5.72899C15.6964 6.04766 15.5661 6.41318 15.4158 6.75997C15.2355 7.16298 14.9549 7.566 14.7144 7.96902C14.3737 8.45639 15.1753 8.85941 15.516 8.40015C16.037 7.68784 16.7084 6.85369 16.7685 5.9633C16.8186 5.46656 16.1473 5.38221 15.9068 5.72899Z" fill="black"/>
<path d="M22.5598 13.0958C22.0087 13.0677 21.4877 13.1521 20.9066 13.2364C20.2653 13.2927 19.614 13.2927 18.9727 13.3489C18.4817 13.4051 18.4817 14.005 18.9727 14.0331C20.135 14.1456 21.6681 14.258 22.7101 13.6863C23.0508 13.527 22.8905 13.124 22.5598 13.0958Z" fill="black"/>
</svg>
